<?xml version="1.0" encoding="iso-8859-1"?>
<!-- Generator: Adobe Illustrator 16.0.0, SVG Export Plug-In . SVG Version: 6.00 Build 0)  -->
<!DOCTYPE svg PUBLIC "-//W3C//DTD SVG 1.1//EN" "http://www.w3.org/Graphics/SVG/1.1/DTD/svg11.dtd">
<svg version="1.1" id="Capa_1" xmlns="http://www.w3.org/2000/svg" xmlns:xlink="http://www.w3.org/1999/xlink" x="0px" y="0px"
	 width="530px" height="530px" viewBox="0 0 530 530" style="enable-background:new 0 0 530 530;" xml:space="preserve">
<g>
	<g>
		<path d="M476.2,425.2c0-48.2-39.5-103.399-96.101-127.399c-12.1,21.5-26.1,39.699-44.6,49.5c-38.3,20.399-66.7,37-66.7,37
			l-70.8-37c-18.8-10.101-41.7-28.5-55.2-50.5c-57.7,23.5-89.1,79.5-89.1,128.3V530h422.6C476.2,530.101,476.2,476,476.2,425.2z"/>
		<path d="M112.8,189.9c4.7,18.8,17.1,33.6,31.6,38.6c17.1,56.2,61,114.5,120.5,114.5c59.5,0,103.4-58.3,120.5-114.5
			c14.6-5,26.899-19.7,31.6-38.6c6.6-25.9-3.1-50.1-21.9-57.3c1.601-6.9,2.5-14,2.5-21.2C397.6,49.9,336.2,0,260.4,0
			c-75.8,0-137.2,49.9-137.2,111.4c0,8.7,1.4,17.3,3.7,25.5C113.5,146.9,107.2,167.7,112.8,189.9z M135.3,156.8
			c2.1-3.2,4.7-5.6,7.9-6.3c0.7-0.1,1.3-0.2,2.2-0.2c0.5,0,1.1,0,1.6,0.1l9.4,0.9l1.4-9.4c3.9-26.7,13.9-49.6,28.1-67.3
			c9.2,16.1,38.9,27.9,74.1,27.9c40.9,0,74.2-15.9,77-35.9c17.9,18.6,30.5,44.5,35.1,75.4l1.4,9.4l9.4-0.9
			c1.3-0.1,2.699-0.1,3.8,0.1c0.7,0.1,1.2,0.5,1.7,0.8c8.6,3.8,12.899,18.8,9.199,33.7c-3.8,15.2-13.8,24.2-21.5,25.3l-6.6,0.9
			l-1.7,6.3C353.5,270,313.6,323,265,323c-48.6,0-88.6-53-102.8-105.4l-1.7-6.3l-6.6-0.9c-7.9-1.1-17.8-10.1-21.5-25.3
			C129.5,174.3,131.1,163.5,135.3,156.8z"/>
		<path d="M220.4,222.8c4.4,0,8.5-0.9,12.5-2.3c12-4.2,21.3-14.1,24.6-26.6h22c2.7,10.6,9.8,19.4,19.4,24.3
			c5.399,2.7,11.3,4.5,17.699,4.5c18.301,0,33.601-12.9,37.4-30.1c0.7-2.7,1-5.5,1-8.4c0-21.2-17.3-38.4-38.4-38.4
			c-17.8,0-32.8,12.2-37.1,28.9h-22c-4.3-16.5-19.2-28.9-37.1-28.9c-21.2,0-38.4,17.3-38.4,38.4c0,8.2,2.6,15.7,7,22
			C196,216.2,207.5,222.8,220.4,222.8z M316.5,165c10.6,0,19.2,8.6,19.2,19.2s-8.601,19.2-19.2,19.2s-19.2-8.6-19.2-19.2
			S305.9,165,316.5,165z M220.4,165c10.6,0,19.2,8.6,19.2,19.2s-8.6,19.2-19.2,19.2s-19.2-8.6-19.2-19.2S209.9,165,220.4,165z"/>
	</g>
</g>
<g>
</g>
<g>
</g>
<g>
</g>
<g>
</g>
<g>
</g>
<g>
</g>
<g>
</g>
<g>
</g>
<g>
</g>
<g>
</g>
<g>
</g>
<g>
</g>
<g>
</g>
<g>
</g>
<g>
</g>
</svg>
